<?xml version="1.0" standalone="no"?>
<!DOCTYPE svg PUBLIC "-//W3C//DTD SVG 20010904//EN"
 "http://www.w3.org/TR/2001/REC-SVG-20010904/DTD/svg10.dtd">
<svg version="1.0" xmlns="http://www.w3.org/2000/svg"
 width="300.000000pt" height="173.000000pt" viewBox="0 0 300.000000 173.000000"
 preserveAspectRatio="xMidYMid meet">
<metadata>
Created by potrace 1.10, written by Peter Selinger 2001-2011
</metadata>
<g transform="translate(0.000000,173.000000) scale(0.100000,-0.100000)"
fill="#000000" stroke="none">
<path d="M567 1466 c-60 -22 -113 -62 -156 -116 -53 -67 -66 -109 -66 -210 1
-73 5 -93 29 -140 15 -30 41 -69 57 -85 37 -39 37 -61 0 -100 -16 -16 -42 -55
-58 -85 -24 -48 -28 -66 -28 -145 1 -79 4 -97 30 -148 16 -32 48 -76 73 -98
136 -126 329 -125 466 1 47 44 96 128 96 166 0 54 -3 54 441 54 264 0 417 -4
430 -10 10 -6 19 -18 19 -28 0 -32 57 -137 96 -176 168 -168 450 -116 552 101
39 83 39 193 -1 277 -15 32 -43 76 -62 97 -19 22 -35 41 -35 44 0 3 16 22 35
44 92 101 118 256 64 372 -34 73 -85 128 -151 165 -49 27 -60 29 -158 29 -89
0 -112 -4 -151 -23 -84 -42 -162 -138 -183 -227 -14 -57 5 -55 -446 -55 -391
0 -418 1 -433 18 -10 10 -17 27 -17 38 0 64 -93 179 -182 225 -55 29 -202 37
-261 15z m228 -42 c86 -35 148 -105 179 -201 29 -88 8 -85 482 -84 469 0 461
-1 484 75 45 144 155 230 295 231 160 0 288 -116 302 -274 7 -80 -16 -155 -73
-230 -54 -72 -53 -81 6 -159 49 -67 70 -132 65 -214 -6 -114 -63 -201 -168
-255 -72 -37 -179 -39 -251 -4 -89 44 -136 99 -179 211 -9 25 -26 51 -37 58
-29 18 -850 18 -879 0 -20 -12 -30 -30 -72 -126 -45 -105 -145 -166 -269 -166
-93 0 -151 24 -214 89 -114 117 -114 273 -1 429 19 26 35 54 35 61 0 7 -16 35
-35 61 -66 91 -80 130 -80 224 0 93 11 122 71 197 33 40 96 78 158 94 43 11
134 3 181 -17z"/>
<path d="M605 1321 c-79 -36 -131 -123 -119 -201 7 -44 18 -64 61 -117 80 -99
81 -170 3 -274 -69 -92 -82 -162 -42 -234 19 -35 76 -82 115 -95 44 -14 119
-6 157 17 37 22 79 80 91 127 22 83 75 137 144 150 17 3 221 6 455 7 453 2
458 1 517 -48 24 -20 63 -90 63 -113 0 -8 10 -32 23 -52 105 -175 370 -92 355
111 -4 49 -11 66 -59 130 -52 71 -54 77 -54 136 0 57 4 66 41 116 65 84 77
114 72 179 -9 123 -134 209 -250 171 -50 -16 -103 -71 -123 -127 -36 -102 -72
-146 -135 -165 -23 -6 -193 -9 -481 -7 l-445 3 -38 25 c-42 29 -66 65 -90 138
-12 36 -30 63 -62 91 -62 55 -127 65 -199 32z m167 -45 c27 -18 46 -52 74
-131 21 -62 84 -126 141 -143 56 -17 874 -17 941 0 64 16 126 79 147 150 20
71 48 114 86 133 37 20 107 22 141 5 105 -55 124 -171 43 -261 -97 -108 -97
-222 0 -330 67 -74 67 -169 1 -227 -64 -56 -139 -62 -204 -17 -24 18 -62 84
-62 110 0 25 -29 77 -63 113 -57 59 -83 62 -548 62 -268 0 -437 -4 -470 -11
-83 -18 -144 -84 -169 -186 -21 -85 -109 -138 -188 -112 -78 24 -132 107 -118
181 3 18 25 56 47 83 54 65 69 102 69 169 0 70 -11 98 -65 164 -25 30 -47 69
-51 89 -25 133 133 235 248 159z"/>
</g>
</svg>
